<!--?xml version="1.0" encoding="utf-8"?-->
<!-- Generator: Adobe Illustrator 26.0.1, SVG Export Plug-In . SVG Version: 6.00 Build 0)  -->
<svg version="1.1" id="Layer_1" xmlns="http://www.w3.org/2000/svg" xmlns:xlink="http://www.w3.org/1999/xlink" x="0px" y="0px" viewBox="0 0 300 100" style="enable-background:new 0 0 300 100;" xml:space="preserve" width="300" height="100">
<style type="text/css">
	.st0{fill:#DE0831;stroke:#ffffff;stroke-width:1;stroke-miterlimit:10;

.svg-elem-1 {
  fill: transparent;
  -webkit-transition: stroke-dashoffset 1s cubic-bezier(0.47, 0, 0.745, 0.715) 0s,
                        fill 0.7s cubic-bezier(0.47, 0, 0.745, 0.715) 0.8s;
          transition: stroke-dashoffset 1s cubic-bezier(0.47, 0, 0.745, 0.715) 0s,
                fill 0.7s cubic-bezier(0.47, 0, 0.745, 0.715) 0.8s;
}

svg.active .svg-elem-1 {
  fill: rgb(222, 8, 49);
}

svg .svg-elem-2 {
  fill: transparent;
  -webkit-transition: stroke-dashoffset 1s cubic-bezier(0.47, 0, 0.745, 0.715) 0.12s,
                        fill 0.7s cubic-bezier(0.47, 0, 0.745, 0.715) 0.9s;
          transition: stroke-dashoffset 1s cubic-bezier(0.47, 0, 0.745, 0.715) 0.12s,
                fill 0.7s cubic-bezier(0.47, 0, 0.745, 0.715) 0.9s;
}

svg.active .svg-elem-2 {
  fill: rgb(222, 8, 49);
}

svg .svg-elem-3 {
  fill: transparent;
  -webkit-transition: stroke-dashoffset 1s cubic-bezier(0.47, 0, 0.745, 0.715) 0.24s,
                        fill 0.7s cubic-bezier(0.47, 0, 0.745, 0.715) 1s;
          transition: stroke-dashoffset 1s cubic-bezier(0.47, 0, 0.745, 0.715) 0.24s,
                fill 0.7s cubic-bezier(0.47, 0, 0.745, 0.715) 1s;
}

svg.active .svg-elem-3 {
  fill: rgb(222, 8, 49);
}

svg .svg-elem-4 {
  fill: transparent;
  -webkit-transition: stroke-dashoffset 1s cubic-bezier(0.47, 0, 0.745, 0.715) 0.36s,
                        fill 0.7s cubic-bezier(0.47, 0, 0.745, 0.715) 1.1s;
          transition: stroke-dashoffset 1s cubic-bezier(0.47, 0, 0.745, 0.715) 0.36s,
                fill 0.7s cubic-bezier(0.47, 0, 0.745, 0.715) 1.1s;
}

svg.active .svg-elem-4 {
  fill: rgb(222, 8, 49);
}

svg .svg-elem-5 {
  fill: transparent;
  -webkit-transition: stroke-dashoffset 1s cubic-bezier(0.47, 0, 0.745, 0.715) 0.48s,
                        fill 0.7s cubic-bezier(0.47, 0, 0.745, 0.715) 1.2000000000000002s;
          transition: stroke-dashoffset 1s cubic-bezier(0.47, 0, 0.745, 0.715) 0.48s,
                fill 0.7s cubic-bezier(0.47, 0, 0.745, 0.715) 1.2000000000000002s;
}

svg.active .svg-elem-5 {
  fill: rgb(222, 8, 49);
}

svg .svg-elem-6 {
  fill: transparent;
  -webkit-transition: stroke-dashoffset 1s cubic-bezier(0.47, 0, 0.745, 0.715) 0.6s,
                        fill 0.7s cubic-bezier(0.47, 0, 0.745, 0.715) 1.3s;
          transition: stroke-dashoffset 1s cubic-bezier(0.47, 0, 0.745, 0.715) 0.6s,
                fill 0.7s cubic-bezier(0.47, 0, 0.745, 0.715) 1.3s;
}

svg.active .svg-elem-6 {
  fill: rgb(222, 8, 49);
}

svg .svg-elem-7 {
  fill: transparent;
  -webkit-transition: stroke-dashoffset 1s cubic-bezier(0.47, 0, 0.745, 0.715) 0.72s,
                        fill 0.7s cubic-bezier(0.47, 0, 0.745, 0.715) 1.4000000000000001s;
          transition: stroke-dashoffset 1s cubic-bezier(0.47, 0, 0.745, 0.715) 0.72s,
                fill 0.7s cubic-bezier(0.47, 0, 0.745, 0.715) 1.4000000000000001s;
}

svg.active .svg-elem-7 {
  fill: rgb(222, 8, 49);
}

svg .svg-elem-8 {
  fill: transparent;
  -webkit-transition: stroke-dashoffset 1s cubic-bezier(0.47, 0, 0.745, 0.715) 0.84s,
                        fill 0.7s cubic-bezier(0.47, 0, 0.745, 0.715) 1.5s;
          transition: stroke-dashoffset 1s cubic-bezier(0.47, 0, 0.745, 0.715) 0.84s,
                fill 0.7s cubic-bezier(0.47, 0, 0.745, 0.715) 1.5s;
}

svg.active .svg-elem-8 {
  fill: rgb(222, 8, 49);
}

svg .svg-elem-9 {
  fill: transparent;
  -webkit-transition: stroke-dashoffset 1s cubic-bezier(0.47, 0, 0.745, 0.715) 0.96s,
                        fill 0.7s cubic-bezier(0.47, 0, 0.745, 0.715) 1.6s;
          transition: stroke-dashoffset 1s cubic-bezier(0.47, 0, 0.745, 0.715) 0.96s,
                fill 0.7s cubic-bezier(0.47, 0, 0.745, 0.715) 1.6s;
}

svg.active .svg-elem-9 {
  fill: rgb(222, 8, 49);
}
    }
</style>
<g>
	<path class="st0 svg-elem-1" d="M57.8,36.8c-2.4,3.6-3.9,8-7,11c0,0,0,0.1,0,0.2c0,0.3-0.4,0.5-0.3,0.8c-1.4,1.6-2.8,3.1-3.8,5
		c-0.7,0.3-1.1,0.9-1.5,1.7c-0.3,0-0.4,0.2-0.7,0.3c-1.7,2.4-3.6,4.6-5.8,6.4c-0.8,0.7-1.6,1.2-2.4,1.8c-0.5,0.4-1,1-1.4,1.4
		c-1.6,1.5-3,2.6-5.1,3c-0.3,1.4,0.2,3.1-0.4,4.5V73c0,0.6,0.4,1.2,0.4,1.8c0,0.2-0.1,0.4-0.3,0.6h1c0,0.9,0.7,1.5,0.7,1.8
		c0,1.1,0,2.6-1,3v0.3c0,0.6-0.1,1.2-0.5,1.8c-0.3,0-0.6,0-0.9,0c-1.1,0-2.1-0.3-3.1-0.9c-0.6-1.6-0.8-3.4-0.8-5.1
		c0-3.4,0.6-6.8,0.9-10.2l0.6-1.3c0.2-3.6,1.3-7,1.2-10.6c0.4-1.1,0.6-2.3,0.6-3.4c0-0.6,0-1.2-0.3-1.8c0.3-0.2,0.4-0.7,0.6-1
		c0.2-2.4,0.3-4.8,0.3-7.2c0-1.3,0-2.6-0.2-3.9c0-0.5-0.3-1.3-0.3-1.7c0-0.5,0.1-1.1,0.1-1.6c0-0.6-0.1-1.2-0.4-1.8
		c-2.6,0.9-4.5,2.5-6.7,4.2c-0.8,0.7-2,1.8-2.9,2.3c-0.2,0.1-0.5,0.1-0.6,0.1c-0.5,0-1-0.1-1.6-0.1c-0.4-0.4-0.8-0.8-1.3-1
		c0.1-0.2,0.1-0.7,0.1-1.1c0-0.9,0.2-1.7,0.4-2.5c1.3-0.6,3-1.1,3.7-2.7c0.1,0.1,0.3,0.1,0.4,0.1c0.3,0,0.5-0.1,0.8-0.1
		c1-0.7,2-1.5,3.1-2c0.3-0.1,0.3-0.3,0.3-0.7c1.3-0.4,2.7-1,3.7-2H28c1.6-1.4,3.9-1.5,5.4-3c0.1,0,0.3-0.1,0.4-0.1
		c0.2,0,0.3,0,0.5,0.1c0.5-0.3,0.9-0.8,1.3-1.3c1.8,0,2.7-0.8,4.2-1.7c0.3,0.1,0.4,0.3,0.8,0.3c1.1-0.9,2.6-0.6,3.6-1.5
		c1.8,0,3.5-0.1,5.3-0.1c2.5,0,5.2,0.2,7.3,2c0.4,1.1,1,2.1,1.8,2.9c0.1,0.6,0.3,1.2,0.5,1.8c-0.2,0.5-0.3,1-0.3,1.5
		c0,1.1,0.3,2.2,0.3,3.3C59.2,32.7,58.2,34.7,57.8,36.8z M55.1,27.4c-0.7-0.6-0.9-1.8-1.6-2.4c-0.5-0.3-1.6-0.3-2.2-0.5
		c-0.7-0.2-0.7-0.6-1.5-0.6c-0.7,0-1.3,0.2-2,0.2c-0.5,0-1-0.3-1.6-0.3s-1,0.7-1.8,0.5c-0.5,0.7,0.2,0.7-1,0.7
		c-1.2,0-2.4,0.3-3.3,1.2c-0.2,0-0.3-0.1-0.5-0.1c-0.9,0-1.7,0.9-2.8,0.9c-1.3,1.5-3.9,1.4-4.9,3.4c0,0.5,0.5,0.5,0.5,1
		c0,0.4-0.2,1.1-0.2,1.7c0,1.4,0.4,2.8,0.6,4.2c-0.3,0.2-0.3,0.6-0.6,0.8c0.4,1.3,0.6,2.6,0.6,4c0,2.2-0.6,4.3-0.8,6.4
		c0,0.4,0.3,0.4,0.3,0.8c0,0.1,0,0.1,0,0.2c-0.6,4.2-1.2,8.5-1.6,12.8H31c1.4,0,2.5-1.2,3.3-2.4h0.6C39,56.1,42.7,52,46,47.2
		c0.4,0,0.5-0.4,0.9-0.5c1.1-1.8,2.3-3.7,3.8-5.2c0.1-1.3,1.1-1.7,1.2-3.2c0.3-0.1,0.6-0.2,0.9-0.5c0.1-0.6,0.5-1.1,0.5-1.7
		c0-0.1,0-0.3-0.1-0.4c1.8-1,1.7-4.3,2.2-6.2C55.1,28.8,55,28,55.1,27.4z"></path>
	<path class="st0 svg-elem-2" d="M82.7,43.3c-0.2,0-0.3,0.2-0.3,0.5c-0.6,0.2-1.3,0.3-1.9,0.7c-0.6,0-1.2-0.1-1.8-0.1c-1.6,0-3.3,0.2-4.9,0.1
		c-0.8,0.5-1.7,0.8-2.6,0.8c-0.3,0-0.6,0-0.8-0.1c-2.6,1.5-6.5,1.6-8.7,3.7c-0.1,0.9-0.2,1.7-0.2,2.5s0.1,1.6,0.3,2.4
		c0.3,0.1,0.6,0.2,0.9,0.2c0.3,0,0.6,0,0.7-0.4c0.8-0.1,1.6,0,2.4,0s1.6,0,2.4-0.3c1.8-0.5,3.3,0,5.2-1c0.7,0.3,1.5,0.2,2.2,0.3
		c0.4,0.3,0.7,0.7,0.7,1.2c0,0.9-0.8,1.8-1.1,2.5h-0.5c-2.6,0-4.8,2-7.5,2c-0.2,0-0.2,0.4-0.3,0.5c-0.2,0-0.4,0-0.6,0
		c-1.2,0-2.3,0.5-3.6,0.5c-0.3,0-0.6,0-1-0.1c-0.3,0.5-0.8,0.5-1.2,0.9c-0.3,1.2,0.1,3.5-0.6,4.4c0,0.3,0.6,0,0.6,0.5
		c0,0.6-0.1,1.2-0.1,1.8c0,2.4,0.8,6,3.4,6c0.8,0,1.7-0.4,2.1-1.2h0.2c0.2,0,0.4,0.1,0.6,0.1c0.6,0,2.2-2.3,3.4-2.7
		c0.4-0.8,0.7-1.8,1.3-2.4v-1.3c0.5-0.7,1.3-1.2,1.6-2c0.3,0.1,0.5,0.2,0.8,0.2s0.6-0.1,0.8-0.2c0.4,0.7,0.6,1.6,1,2.4
		c-1,2.3-2.7,6.6-4.4,8.2c-0.1,0.1-0.3,0.2-0.5,0.3c-0.6,0.4-1.1,0.9-1.6,1.5c-1.6,0.5-3,1.6-4.4,2.5c-0.3-0.1-0.7-0.1-1-0.1
		c-0.7,0-1.3,0.1-2.1,0.1c-0.2-0.3-0.8-0.2-0.7-0.8c-3.7-0.3-4.4-4.5-5.4-7.7v-0.1c0-0.3,0.3-0.3,0.3-0.6v-0.1
		c-0.2-0.6-0.3-1.1-0.3-1.8c0-1,0.2-2,0.2-2.9c0-0.4,0-0.9-0.2-1.3c0.5-0.6,0.4-2.2,0.6-3c-0.2-0.7-0.4-1.2-0.4-1.9v-0.3
		c0.5-1.1,0.9-2.2,1.3-3.4v-0.1c0-1.8-0.2-3.7-0.2-5.5c0-0.6,0-1.2,0-1.8c0.4-0.2,0.6-0.8,1-1h1.3c0.2-0.3,0.4-0.6,0.4-1
		c0.6-0.2,1.2-0.6,1.7-0.9c1.6-1.1,2.4-1.6,4.2-1.8c0.4,0,0.5-0.2,0.7-0.5c0.7,0.1,1.3,0.2,2,0.2s1.3-0.1,1.8-0.4
		c1.6,0,3.2-0.1,4.9-0.1c1.4,0,2.8,0.1,4.2,0.4c0.3-0.1,0.5-0.1,0.8-0.1c0.7,0,1.3,0.2,2,0.1c0,0.6,0.4,1.1,0.4,1.7v-0.2H82.7z"></path>
	<path class="st0 svg-elem-3" d="M107.3,44.1c-1,0.1-1,1.5-1.6,2.2c0.4,2.3,0.4,4.6,0.6,6.9c0.3,2.8,1,5.6,1,8.5c0,0.8,0,1.6,0,2.4
		c0,0.5,0,1.1,0,1.6c0,1.8-0.5,3.6-0.8,5.4c-1.3,1.4-1.7,3.4-3.6,3.7c-0.2,0.6-0.8,0.8-1,1.3h-0.1c-2.8,0-3.6-2-5.9-2.7
		c-1.5-1.4-2.6-3.4-4.2-4.7c-0.3-1.2-1.1-1.9-1.7-2.9c-0.3-0.4-0.4-0.8-0.5-1.3c-0.2-0.4-0.6-0.6-0.9-0.8c-0.4-1.9-1.3-3.6-2.3-5
		c-0.7,1.3-0.6,3.2-1.5,4.5v0.1c0,0.3,0.3,0.3,0.3,0.6V64c-0.3,0.2-0.3,0.8-0.7,0.8c0,0.3,0,0.6,0,0.9c0,1.8-0.5,3.6-0.5,5.5
		c0,0.4,0,0.8,0,1.2c0.1,0.4,0.4,0.8,0.4,1.1c0,0.2-0.1,0.4-0.3,0.6c0.8,0.7,2.1,1.5,2.1,2.8c0,2.1-2.8,1.4-4,2.6H82
		c-0.7,0-0.8-0.7-1.5-0.7c-1-1.9-1.3-4.5-1.3-6.7c0-5.4,1.8-10.6,2.9-15.9v-0.1c0-0.2-0.2-0.3-0.2-0.6v-0.1c0.2-0.6,0.4-1.2,0.5-1.8
		c0.7-3.6,0.3-7.4,0.8-11c0.5-0.5,0.8-1.1,1.3-1.5c1.1,0,2.2,0.3,3.2,1c0.6,2.7,0.7,5.4,1.3,8.1v0.1c0,0.3,0.4,0.1,0.6,0.4
		c-0.1,0.2-0.1,0.5-0.1,0.7v0.8c0.1,0.5,0.2,1.2,0.7,1.3c0.6,4,2.3,6.6,4,9.9c2.8,2.4,3.4,6.5,7.5,7.1c0.5-0.6,0.4-1.8,1.2-2.2
		c0.1-1.7,0.2-3.7,0.7-5.2c-0.2-0.3-0.2-0.7-0.2-1.1c0-0.6,0.1-1.2,0.1-1.7s-0.1-1-0.3-1.4c0-0.4,0-1,0.3-1.3
		c-0.4-1.3-0.7-2.7-0.7-4.1c0-0.4,0-0.9,0.1-1.3c-0.7-1.9-0.2-5.4-1.3-6.7c0.2-0.3,0.3-0.7,0.3-1c0-1.2-0.5-2.4-0.5-3.6
		c0-0.5,0.1-0.9,0.3-1.3c1.2,0,2.3,0.3,3.5,0.3c0.6,1.1,2,1.1,2.5,2.2C107.5,42.9,107.2,43.3,107.3,44.1z"></path>
	<path class="st0 svg-elem-4" d="M132.7,69.9c-0.8,0.4-1.2,1.4-1.6,2.2c-3.6,2.7-7.8,4.5-12.2,4.5c-0.5,0-0.8-1.3-1.5-1.3c-0.2,0-0.3,0-0.4,0.1
		c0-0.1,0-0.2,0-0.3c0-0.8-0.3-1.5-0.3-2.3c0-0.4,0-0.8,0.2-1.1h0.5c0.5,0,1.1-0.1,1.6-0.1c0.3,0,0.6,0.1,0.8,0.3
		c3-0.1,5.6-1.6,8.4-2.7c0.4-0.7,0.4-1.6,0.7-2.4c-1.4-1.3-2.8-2.3-4.7-2c-1.1-0.8-2.4-0.7-3.7-1c-0.3,0-0.7-0.2-1.1-0.2
		c-0.3,0-0.5,0.1-0.5,0.4c-0.2-0.4-0.8-0.4-1.1-0.8c-1.8-0.1-2.9-0.8-4.4-1.5c-0.4-0.2-0.9-0.3-1.3-0.5c-1.9-1.1-2.2-4.1-2.5-6.2
		c0.5-1,0.9-2.1,1.2-3.2c0.3-0.2,0.7-0.3,1-0.5c0-0.1,0-0.1,0-0.2c0-0.3,0.3-0.6,0.2-1c1.2-1.2,2.4-2.5,3.2-4.2
		c1.6-0.6,1.8-2.8,3.7-3c0.4-1,1.6-1,1.9-2c1.7,0,2.8-1.8,4.6-1.8c0.2,0,0.5,0,0.7,0.1c0.8,0.8,0.4,2.6,0.8,3.7
		c-0.5,1.1-1,2.3-1.9,2.8h-0.1c-0.4,0-0.7-0.3-1.1-0.3c-0.5,0-0.5,0.7-1.2,0.5c-0.3,0.1-0.5,0.4-0.4,0.8c-2.1,0.2-2.6,2.9-4.3,3
		c-0.9,1.9-2.5,3.1-3.4,4.9c0.2,0.5,0.2,1.1,0.3,1.7c0.5,0.8,1.2,1.3,1.9,1.8h0.1c1,0,2,0.7,3,0.7c0.3,0,0.5,0,0.7-0.2
		c1.4,0.4,2.8,0.6,4.2,0.8c0.7,0.1,1.5,0,2.1,0.2s1.2,0.5,1.8,0.8c2.5,1.2,4.7,3,4.7,6.5C133.3,68.1,132.6,68.8,132.7,69.9z"></path>
	<path class="st0 svg-elem-5" d="M174.7,36.8c-2.4,3.6-3.9,8-7,11c0,0,0,0.1,0,0.2c0,0.3-0.4,0.5-0.3,0.8c-1.4,1.6-2.8,3.1-3.8,5
		c-0.7,0.3-1.1,0.9-1.5,1.7c-0.3,0-0.4,0.2-0.7,0.3c-1.7,2.4-3.6,4.6-5.8,6.4c-0.8,0.7-1.6,1.2-2.4,1.8c-0.5,0.4-1,1-1.4,1.4
		c-1.6,1.5-3,2.6-5.1,3c-0.3,1.4,0.2,3.1-0.4,4.5V73c0,0.6,0.4,1.2,0.4,1.8c0,0.2-0.1,0.4-0.3,0.6h1c0,0.9,0.7,1.5,0.7,1.8
		c0,1.1,0,2.6-1,3v0.3c0,0.6-0.1,1.2-0.5,1.8c-0.3,0-0.6,0-0.9,0c-1.1,0-2.1-0.3-3.1-0.9c-0.6-1.6-0.8-3.4-0.8-5.1
		c0-3.4,0.6-6.8,0.9-10.2l0.6-1.3c0.2-3.6,1.3-7,1.2-10.6c0.4-1.1,0.6-2.3,0.6-3.4c0-0.6,0-1.2-0.3-1.8c0.3-0.2,0.4-0.7,0.6-1
		c0.2-2.4,0.3-4.8,0.3-7.2c0-1.3,0-2.6-0.2-3.9c0-0.5-0.3-1.3-0.3-1.7c0-0.5,0.1-1.1,0.1-1.6c0-0.6-0.1-1.2-0.4-1.8
		c-2.6,0.9-4.5,2.5-6.7,4.2c-0.8,0.7-2,1.8-2.9,2.3c-0.2,0.1-0.5,0.1-0.6,0.1c-0.5,0-1-0.1-1.6-0.1c-0.4-0.4-0.8-0.8-1.3-1
		c-0.1-0.4-0.1-0.8-0.1-1.2c0-0.9,0.2-1.7,0.4-2.5c1.3-0.6,3-1.1,3.7-2.7c0.1,0.1,0.3,0.1,0.4,0.1c0.3,0,0.5-0.1,0.8-0.1
		c1-0.7,2-1.5,3.1-2c0.3-0.1,0.3-0.3,0.3-0.7c1.3-0.4,2.7-1,3.7-2h0.7c1.6-1.4,3.9-1.5,5.4-3c0.1,0,0.3-0.1,0.4-0.1
		c0.2,0,0.3,0,0.5,0.1c0.5-0.3,0.9-0.8,1.3-1.3c1.8,0,2.7-0.8,4.2-1.7c0.3,0.1,0.4,0.3,0.8,0.3c1.1-0.9,2.6-0.6,3.6-1.5
		c1.8,0,3.5-0.1,5.3-0.1c2.5,0,5.2,0.2,7.3,2c0.4,1.1,1,2.1,1.8,2.9c0.1,0.6,0.3,1.2,0.5,1.8c-0.2,0.5-0.3,1-0.3,1.5
		c0,1.1,0.3,2.2,0.3,3.3C176,32.7,175,34.7,174.7,36.8z M171.9,27.4c-0.7-0.6-0.9-1.8-1.6-2.4c-0.5-0.3-1.6-0.3-2.2-0.5
		c-0.7-0.2-0.7-0.6-1.5-0.6c-0.7,0-1.3,0.2-2,0.2c-0.5,0-1-0.3-1.5-0.3c-0.6,0-1,0.7-1.8,0.5c-0.6,0.7,0.1,0.7-1.1,0.7
		c-1.2,0-2.4,0.3-3.3,1.2c-0.2,0-0.3-0.1-0.5-0.1c-0.9,0-1.7,0.9-2.8,0.9c-1.3,1.5-3.9,1.4-4.9,3.4c0,0.5,0.5,0.5,0.5,1
		c0,0.4-0.2,1.1-0.2,1.7c0,1.4,0.4,2.8,0.6,4.2c-0.3,0.2-0.3,0.6-0.6,0.8c0.4,1.3,0.6,2.6,0.6,4c0,2.2-0.6,4.3-0.8,6.4
		c0,0.4,0.3,0.4,0.3,0.8c0,0.1,0,0.1,0,0.2c-0.6,4.2-1.2,8.5-1.6,12.8h0.3c1.4,0,2.5-1.2,3.3-2.4h0.6c3.9-3.9,7.6-8.1,10.9-12.8
		c0.4,0,0.5-0.4,0.9-0.5c1.1-1.8,2.3-3.7,3.8-5.2c0.1-1.3,1.1-1.7,1.2-3.2c0.3-0.1,0.6-0.2,0.9-0.5c0.1-0.6,0.5-1.1,0.5-1.7
		c0-0.1,0-0.3-0.1-0.4c1.8-1,1.7-4.3,2.2-6.2C171.9,28.8,171.9,28,171.9,27.4z"></path>
	<path class="st0 svg-elem-6" d="M195.2,62.4c0,0.1,0.1,0.3,0.2,0.5c-0.8,0-0.9,0.7-1.2,1.3c-0.9,0-1,0-1.3,0.9c-2.1,0.5-3.7,2.3-5.7,3
		c-0.3,0.5-0.6,0.9-1,1.2H186c-0.3,0-0.5-0.2-0.7-0.2c0,0-0.1,0-0.2,0c-0.8,0.7-1.8,0.9-2.7,0.9c-0.5,0-1-0.1-1.5-0.1
		c-0.4,0,0,0.5-0.7,0.5s-1.2-0.3-1.8-0.2c-1.2-0.8-1.9-1.3-2.5-2.8c-0.3-0.7-0.8-1.3-1-2c-0.1-0.5-0.5-3-0.5-3.5
		c0-0.8,0.1-1.5,0.2-2.2c0.3-2.4,0.3-4.9,1-7.1c-0.1-0.7-0.1-1.3-0.1-2c0-0.5,0-1-0.2-1.5c0.2-0.4,0.3-0.9,0.3-1.3
		c0-0.5-0.2-0.9-0.6-1v-0.1c0-0.6-0.2-1.2-0.6-1.5c0-2.2,1-3.1,2.6-3.9c0.1-0.1,0.2-0.3,0.1-0.5c0.3,0.1,0.7,0.3,1,0.3
		s0.5,0,0.8-0.1c0.2,0.8,1,0.8,1.5,1v0.6c0,1,0.2,1.9,0.6,2.8c-0.2,0.5-0.2,1.1-0.2,1.6c0,0.8,0.1,1.5,0.1,2.2
		c0,0.8-0.1,1.5-0.6,2.1c-0.1,1.6,0,4.4-0.9,5.7c0,1-0.1,1.9-0.1,2.8c0,1.3,0.1,3.6,0.7,4.8c0.3,0.5,1.3,0.8,1.8,0.8
		c0.6,0,1.3-0.2,1.6-0.8c0.3,0,0.3,0.5,0.6,0.7c3.1-1.5,6.2-2.8,9.2-4.6c0.3,0.1,0.5,0.2,0.7,0.2c0.5,0,1.1-0.2,1.6-0.2h0.3
		c0,0.1,0.1,0.3,0.1,0.4C195.9,61.6,195.2,61.8,195.2,62.4z"></path>
	<path class="st0 svg-elem-7" d="M222.5,71.6c-0.3,0-0.5,0-0.8,0s-0.2,0.4-0.4,0.5c-0.3-0.1-0.6-0.1-0.8-0.1c-0.3,0-0.7,0-1,0
		c-0.8,0-0.7-0.5-1.2-0.8c-0.4-0.2-0.5,0.1-1-0.3c-1.3-1.2-1.8-3.8-3.1-5.4h-0.3c-0.5,0-0.8,0.2-1,0.7c-0.3-0.2-0.5-0.5-0.9-0.7
		c-1.3,0.4-2.6,0.8-4,0.8c-0.4,0-0.8,0-1.1-0.1c-0.5,0.2-0.9,0.7-1.5,0.7c-0.2,0-0.4-0.1-0.6-0.2c-0.3,0-0.1,0.5-0.5,0.5h-0.4
		c-0.8,0-1.5,0.1-2.3,0.1c-0.5,0-1.1-0.1-1.6-0.2c-0.1,0.1-0.3,0.1-0.5,0.1c-0.4,0.3-0.3,1.2-1,1c-0.1,0.8-0.8,1-0.8,1.9
		c-1.2,0.7-1.4,2.5-2.6,3.2c-0.2,0.2-0.2,0.6-0.1,0.9c-0.6,0.6-1.6,1.1-2.3,1.1c-0.8,0-1.3-0.6-1.6-1.4c0-1.2,0.2-3,1.3-3.6
		c0-0.5-0.5-0.6-0.5-1.2c3-1.6,4-5.5,6.3-7.9v-1c0.8-0.9,1.3-2.1,1.6-3.4c0.6-0.1,0.8-0.7,0.8-1.3c0.3,0,0.3-0.5,0.6-0.3
		c1-3,2.6-4.9,3.1-8.3c0.7,0,0.7-1.1,0.8-1.7c1.6-1.7,1.4-5,2.9-7.1V38c0-0.3-0.3-0.2-0.3-0.6c0,0,0,0,0-0.1
		c0.6-0.3,0.8-1.2,1.5-1.5c1.1,1,1.8,1.1,3.2,1.2c0.7,0.9,0.6,2.2,0.9,3.4c0.4,2,1,3.8,1.3,5.9c0.2,1.2,0.8,2.2,0.9,3.4
		c0.1,0.9-0.1,2.1,0.2,2.9l0.3,0.8c0.3,0.7,0.5,1.4,0.6,2.2c0.4,1.9,0.7,4.2,1.4,6c0.5,1.2,2.6,0.9,3.5,0.9c0.3,0,0.6,0,0.9,0.1
		c0.1,0.2,0.2,0.4,0.2,0.7c0,0.8-0.6,1.1-0.6,1.6c0,0.2,0.1,0.4,0.2,0.5c-0.2,0-0.3,0-0.5,0c-0.6,0-1.3,0.1-1.8,0.4
		c0.4,1.1,1.2,1.7,2.1,2.4c0.3-0.2,0.5-0.4,0.8-0.4c0.7,0,1.2,0.5,1.8,0.5c0.2,0,0.4,0,0.5-0.1c0.4,0.5,0.6,1.2,1,1.7
		C225.7,71.3,223.7,71.6,222.5,71.6z M212.7,60c-0.2-0.9-0.3-1.9-0.4-2.8c-0.3-2.1-0.8-4.3-1.5-6.3c0.1-0.1,0.2-0.3,0.2-0.5v-0.1
		c-1-1.2-0.7-3.8-1.9-4.7c-0.1,0.2-0.1,0.4-0.1,0.6c0,0.4,0.1,0.8,0.1,1.2c-0.5,0.3-0.7,1.1-1.2,1.5c-0.9,4-3.5,7-4.5,11
		c-0.7,0.5-0.9,1.5-0.9,2.4c1,0.7,2.5-0.1,3.4,0.9c0.7-0.2,1.7-0.2,2.2-0.7c0.5,0.2,1.1,0.3,1.8,0.3c0.6,0,1.3-0.1,1.9-0.3
		c0.5,0.1,0.6,0.5,1.2,0.5c0.3-0.2,0.3-0.6,0.5-0.8C213.2,61,212.8,60.7,212.7,60z"></path>
	<path class="st0 svg-elem-8" d="M256.4,64.5c0,1.2-1.3,1.5-1.9,2.2c-0.2,0.2-0.3,0.7-0.5,0.8c-0.6,0.5-1.6,0.1-2.2,1c-2.6,0.3-5,1-7.6,1
		c-0.5,0-1.1,0.1-1.6,0.2c-1.1,0.1-2.3,0.2-3.4,0.2c-1.6,0-3.2-0.1-4.7-0.5c-0.8-0.7-2.2-0.6-2.6-1.5c-1.7-0.2-2.3-1.4-3.7-2
		c-0.5-0.9-1-1.8-1.9-2.4c-0.3-2.5-1.5-4.7-1.5-7.2c0-1.7,0.9-5.3,2-6.6c0.2-0.2,0.4-0.3,0.6-0.5c0.5-0.6,1-1,1.6-1.5
		c0.2-0.2,0.3-0.6,0.6-0.9c0.1-0.1,0.5,0,0.7-0.1c0.2-0.2,0.1-0.5,0.3-0.7h0.5c0.3,0,0.9-0.8,1.3-1c0.4-0.2,0.8-0.3,1.2-0.5
		c0.6-0.3,1.2-0.5,1.8-0.8c0.3-0.2,0.6-0.5,0.9-0.7c1-0.4,2.2-0.1,3.1-1h0.3c1,0,1.9-0.4,2.8-0.4c0.2,0,0.4,0,0.6,0.1
		c0.2-0.1,0.5-0.2,0.7-0.2c1,0,1.8,0.8,2.8,0.8c0.2,0,0.4,0,0.5,0c0.6,0.7,1.5,0.5,2.2,1c0.8,0.7,0.8,2.1,1.3,3
		c-0.2,2.3-1.7,3.7-3.7,3.7c-1.6,0-1.9-1-3.1-1.2c0.3-0.6,0.5-1.3,0.6-2c-0.6-0.3-1.2-0.4-1.8-0.7c-1.5,0.4-2.9,0.3-4.1,1.5
		c-0.3,0-0.5-0.1-0.8-0.1c-0.7,0-4.4,2.5-5.2,3c-0.9,0.6-1.3,1.9-2.2,2.4c-0.1,0.7-0.4,1.2-0.8,1.7c0,1.2-0.2,2.3-0.2,3.4
		c0,0.4,0,0.8,0.1,1.1c0.5,0.8,0.7,2,1.6,2.4c0,0.2-0.1,0.2-0.1,0.5c0.6,1.3,2.2,1.5,2.8,2.9c1.7,0,2.9,1.5,4.2,1.5
		c0.3,0,0.5,0,0.8-0.1c1.4,0.5,2.9,0.7,4.4,0.7c1.8,0,3.6-0.3,5.4-0.5c0.6-0.1,1.3-0.1,1.8-0.2c0.7-0.1,1.4-1,2.1-1.3
		c0.3,0.2,0.7,0.3,1.1,0.3c0.9,0,1.8-0.5,2.7-0.5h0.2V64.5z"></path>
	<path class="st0 svg-elem-9" d="M282,43.3c-0.2,0-0.3,0.2-0.3,0.5c-0.6,0.2-1.3,0.3-1.9,0.7c-0.6,0-1.2-0.1-1.8-0.1c-1.6,0-3.3,0.2-4.9,0.1
		c-0.8,0.5-1.7,0.8-2.6,0.8c-0.3,0-0.6,0-0.8-0.1c-2.6,1.5-6.5,1.6-8.7,3.7c-0.1,0.9-0.2,1.7-0.2,2.5s0.1,1.6,0.3,2.4
		c0.3,0.1,0.6,0.2,0.9,0.2s0.6,0,0.7-0.4c0.8-0.1,1.6,0,2.4,0s1.6,0,2.4-0.3c1.8-0.5,3.3,0,5.2-1c0.7,0.3,1.5,0.2,2.2,0.3
		c0.4,0.3,0.7,0.7,0.7,1.2c0,0.9-0.8,1.8-1.1,2.5H274c-2.6,0-4.8,2-7.5,2c-0.2,0-0.2,0.4-0.3,0.5c-0.2,0-0.4,0-0.6,0
		c-1.2,0-2.3,0.5-3.6,0.5c-0.3,0-0.6,0-1-0.1c-0.3,0.5-0.8,0.5-1.2,0.9c-0.3,1.2,0.1,3.5-0.6,4.4c0,0.3,0.6,0,0.6,0.5
		c0,0.6-0.1,1.2-0.1,1.8c0,2.4,0.8,6,3.4,6c0.8,0,1.7-0.4,2.1-1.2h0.2c0.2,0,0.4,0.1,0.6,0.1c0.6,0,2.2-2.3,3.4-2.7
		c0.4-0.8,0.7-1.8,1.3-2.4v-1.3c0.5-0.7,1.3-1.2,1.6-2c0.3,0.1,0.5,0.2,0.8,0.2s0.6-0.1,0.8-0.2c0.4,0.7,0.6,1.6,1,2.4
		c-1,2.3-2.7,6.6-4.4,8.2c-0.1,0.1-0.3,0.2-0.5,0.3c-0.6,0.4-1.1,0.9-1.6,1.5c-1.6,0.5-3,1.6-4.4,2.5c-0.3-0.1-0.7-0.1-1-0.1
		c-0.7,0-1.3,0.1-2.1,0.1c-0.2-0.3-0.8-0.2-0.7-0.8c-3.7-0.3-4.4-4.5-5.4-7.7v-0.1c0-0.3,0.3-0.3,0.3-0.6v-0.1
		c-0.2-0.6-0.3-1.1-0.3-1.8c0-1,0.2-2,0.2-2.9c0-0.4,0-0.9-0.2-1.3c0.5-0.6,0.4-2.2,0.6-3c-0.2-0.7-0.4-1.2-0.4-1.9v-0.3
		c0.5-1.1,0.9-2.2,1.3-3.4v-0.1c0-1.8-0.2-3.7-0.2-5.5c0-0.6,0-1.2,0-1.8c0.4-0.2,0.6-0.8,1-1h1.3c0.2-0.3,0.4-0.6,0.4-1
		c0.6-0.2,1.2-0.6,1.7-0.9c1.6-1.1,2.4-1.6,4.2-1.8c0.4,0,0.5-0.2,0.7-0.5c0.7,0.1,1.3,0.2,2,0.2s1.3-0.1,1.8-0.4
		c1.6,0,3.2-0.1,4.9-0.1c1.4,0,2.8,0.1,4.2,0.4c0.3-0.1,0.5-0.1,0.8-0.1c0.7,0,1.3,0.2,2,0.1c0,0.6,0.4,1.1,0.4,1.7v-0.2H282z"></path>
</g>
</svg>
